Simulation
nRows=40
nColumns=15
endheader
time  TH_x TH_y TH_z SC_y  SC_z  SC_x  AC_y  AC_z  AC_x  GH_y  GH_z  GH_yy  EL_x  PS_y
8.043  0.000000  0.000000  0.000000  -21.194426307618265  2.213032019595025  -7.360322256993063  55.83017880552817  12.483154651241984  5.423604648814864  7.089445825228  7.089956561017961  48.76544609442508  17.280405286812172  120.000000
8.09662  0.000000  0.000000  0.000000  -20.693757426069077  1.9123345627549184  -8.81397458595852  55.37666268382669  12.425395187694775  5.821642487990473  9.540473413615171  8.820902865159663  46.01001338904583  16.681284911873185  120.000000
8.15024  0.000000  0.000000  0.000000  -20.139663761062472  1.6351530595020365  -10.333691233776854  54.999946667145686  12.493006192751954  6.365904261180674  12.04438607270494  10.843926421337908  42.943880758099596  15.930479127930935  120.000000
8.20386  0.000000  0.000000  0.000000  -19.60222377131962  1.382295534215712  -11.876859308750085  54.7683054557375  12.699784524967832  7.065699699986815  14.252263621574631  13.255150819276713  39.849281835863785  15.078463300377027  120.000000
8.257480000000001  0.000000  0.000000  0.000000  -19.144141569423944  1.1556782656082842  -13.406798754845466  54.74794600884757  13.053239878980781  7.92427101023825  15.903788676089741  16.13554260723169  36.93893438476794  14.203931256730172  120.000000
8.3111  0.000000  0.000000  0.000000  -18.79521998839115  0.9562483160423016  -14.906229625215186  55.006684392509534  13.557353649346158  8.940993241292942  16.86191675895117  19.52874800283512  34.322450456805505  13.391205784864423  120.000000
8.36472  0.000000  0.000000  0.000000  -18.559268024713663  0.7768575881773608  -16.378673017637436  55.59657665454214  14.226269942077215  10.125593650138248  17.130324220910314  23.434701106505248  32.00622029385847  12.699438066137127  120.000000
8.41834  0.000000  0.000000  0.000000  -18.43731042841156  0.6096093129034633  -17.851128367731228  56.53887582385085  15.08762615804533  11.490543488227095  16.816975411787645  27.80626143771375  29.958579235096284  12.145191695358317  120.000000
8.47196  0.000000  0.000000  0.000000  -18.437229037862867  0.4602480519356375  -19.36179256852578  57.811629349191186  16.17273265578175  13.014393595381216  16.07414802345612  32.54052849872433  28.17048754944266  11.708641538711976  120.000000
8.52558  0.000000  0.000000  0.000000  -18.561498862786  0.35363830364879373  -20.927539332528053  59.34545913929632  17.4986614877633  14.639688895914544  15.11110385565417  37.49116266810695  26.603724042887244  11.357650605916302  120.000000
8.5792  0.000000  0.000000  0.000000  -18.78770962204601  0.3054598063849169  -22.521187817145236  61.024874387404  19.057738642412573  16.295415515744796  14.169495623396621  42.504049880482306  25.169374468314114  11.067451705141062  120.000000
8.63282  0.000000  0.000000  0.000000  -19.0722333509174  0.3104198354886024  -24.07437389779103  62.69377725374519  20.811266508756106  17.89825937921018  13.454761111949542  47.438169523935166  23.760474045968575  10.82746823866528  120.000000
8.686440000000001  0.000000  0.000000  0.000000  -19.35621474488011  0.3710764756675292  -25.500851644983925  64.21231646044365  22.69876846113216  19.325799375070016  13.08924612426943  52.17840708671814  22.274084888659583  10.632819938133782  120.000000
8.74006  0.000000  0.000000  0.000000  -19.589347712882677  0.49204076431408794  -26.716338682209447  65.47416901873154  24.655254598828957  20.464007571296502  13.089181110122178  56.633910493995636  20.635219523434934  10.477735604970096  120.000000
8.79368  0.000000  0.000000  0.000000  -19.75313626618158  0.6652083164355612  -27.64989876177846  66.39714542661994  26.60840198673358  21.271267333904017  13.385351984868556  60.73377678945775  18.806005072516246  10.358294456666679  120.000000
8.8473  0.000000  0.000000  0.000000  -19.851951370142313  0.8720354327072425  -28.257059740003868  66.95770010415228  28.481662221949126  21.75812489126551  13.873122780779871  64.42939021845987  16.77681497990289  10.272272825547391  120.000000
8.90092  0.000000  0.000000  0.000000  -19.901761838773282  1.0865442537190166  -28.531433132585295  67.1860635662726  30.20757547524971  21.972229276434742  14.450380605535129  67.69071968500096  14.568353848875375  10.221552787014001  120.000000
8.95454  0.000000  0.000000  0.000000  -19.92598782301345  1.2875107670611279  -28.49749605301914  67.13773349692924  31.731558656228547  21.98137955537941  15.032269962418878  70.50710707126187  12.230641970125907  10.207879012910503  120.000000
9.00816  0.000000  0.000000  0.000000  -19.950335622020486  1.465697490359092  -28.181534003272365  66.88423398855618  33.011155744243474  21.84605600692005  15.557447261720844  72.88147972274076  9.835014218150778  10.227743487110027  120.000000
9.06178  0.000000  0.000000  0.000000  -19.995141414980967  1.6272070492785293  -27.60303565406968  66.5029955348254  34.02319960181328  21.61107165290383  15.993598993487959  74.82729819125012  7.467925102164093  10.270504318928412  120.000000
9.115400000000001  0.000000  0.000000  0.000000  -20.07057704966157  1.7905383988691175  -26.79171910914027  66.06084471714505  34.77276125681583  21.31885237434155  16.333923433341706  76.36743580325287  5.2234504342024035  10.319594826879063  120.000000
9.16902  0.000000  0.000000  0.000000  -20.181582821664197  1.9730462330708403  -25.78830296489892  65.60907226091389  35.280527280132084  21.004806320105423  16.59017835020796  77.53365656479959  3.192884312209643  10.356887204719685  120.000000
9.22264  0.000000  0.000000  0.000000  -20.329009743089458  2.1772055982216076  -24.63678724935566  65.18799543132602  35.56369521836711  20.68506971432392  16.78203602185744  78.36785963754465  1.4535903232702727  10.369006673496301  120.000000
9.27626  0.000000  0.000000  0.000000  -20.506710046639242  2.3934764841458587  -23.395412098015147  64.83493803935806  35.63758392779466  20.365208462915174  16.929207085776007  78.91756073971516  0.05969429547987065  10.352362309391175  120.000000
9.32988  0.000000  0.000000  0.000000  -20.697425756836576  2.6063246530254434  -22.14489791799397  64.58944876814124  35.51775777373671  20.049458663229046  17.046723268134773  79.23609371362745  -0.9593475423955851  10.314722086646057  120.000000
9.3835  0.000000  0.000000  0.000000  -20.874427058057183  2.794618163847575  -20.984232785418616  64.4910218795767  35.21506113826716  19.73956430844782  17.143197549344226  79.38694198357676  -1.5901290034525126  10.271013470761865  120.000000
9.43712  0.000000  0.000000  0.000000  -21.007294569360788  2.936407735475821  -20.01903258091233  64.56956848055523  34.737811371978104  19.43683039823  17.222466061561516  79.43064914534827  -1.8272480691611768  10.234857453062805  120.000000
9.49074  0.000000  0.000000  0.000000  -21.075012174219243  3.0187008813908673  -19.328700906198673  64.82564215717802  34.11174370568917  19.15489737167603  17.2936451249102  79.36283292530135  -1.6773947483384215  10.209438243685172  120.000000
9.544360000000001  0.000000  0.000000  0.000000  -21.073273251677957  3.040334247294206  -18.949151929917342  65.22393356915546  33.38692837843268  18.923898398860846  17.375361034808716  79.09201091273837  -1.1606998513090463  10.18451269138979  120.000000
9.59798  0.000000  0.000000  0.000000  -21.007562007242345  3.0031689791049887  -18.892239962950935  65.70901476520744  32.61323500516349  18.77487709837463  17.48257420992801  78.5045761492127  -0.29605514657338444  10.141792541731736  120.000000
9.6516  0.000000  0.000000  0.000000  -20.886594712395905  2.9060433432093165  -19.15969354653165  66.21630764052242  31.823716973024354  18.730536605951283  17.61767074088726  77.5080865667114  0.9033645205235044  10.066443426693953  120.000000
9.70522  0.000000  0.000000  0.000000  -20.720985477711334  2.7489724391169594  -19.740032632887303  66.67406470504253  31.035235596388596  18.8010786232993  17.76785305858814  76.02950621807386  2.422307675000465  9.957567113514662  120.000000
9.75884  0.000000  0.000000  0.000000  -20.52562622095489  2.533075494506891  -20.605677987896364  66.99992953789514  30.252691460710356  18.98487234178051  17.90453995437763  74.0110208503462  4.238500437751175  9.834675704681274  120.000000
9.81246  0.000000  0.000000  0.000000  -20.317893471137676  2.264933496428207  -21.70868804350031  67.10668338824425  29.47841263731638  19.26439076572099  17.990760112113165  71.41165109350915  6.321256338811264  9.73450397245319  120.000000
9.86608  0.000000  0.000000  0.000000  -20.115618152720703  1.95835438046647  -22.97738458812138  66.91661089460541  28.726006103298293  19.60175260732667  17.992919998395756  68.21072158066845  8.634007594216119  9.702496678311018  120.000000
9.9197  0.000000  0.000000  0.000000  -19.93376374442013  1.6359948874134855  -24.317848298989098  66.37463854407324  28.02856159806028  19.93833714276301  17.886037787816026  64.41675777212096  11.142534523313264  9.782869334293975  120.000000
9.973320000000001  0.000000  0.000000  0.000000  -19.77963789540846  1.3266009517921193  -25.62348526104733  65.46329134985531  27.44088946283873  20.20105506594259  17.661945626252983  60.07338901460517  13.819471096867066  10.015149437091319  120.000000
10.02694  0.000000  0.000000  0.000000  -19.644366016502193  1.0534854104716005  -26.785422320395107  64.21336469543112  27.01827330010401  20.318289674049364  17.336470710959013  55.256723995064824  16.645374721990287  10.433596641215606  120.000000
10.08056  0.000000  0.000000  0.000000  -19.518308784143237  0.8292076949515269  -27.70761420391383  62.69342475638465  26.784674456342223  20.235810866246293  16.942591049088445  50.06513352048196  19.6041569532603  11.062943518678349  120.000000
10.13418  0.000000  0.000000  0.000000  -19.398463333778356  0.6554704462514289  -28.322185073140435  60.9894348517706  26.726758317589468  19.93711997246486  16.51762930374654  44.60853944241818  22.67271172458254  11.906145161291809  120.000000
